<?xml version="1.0" encoding="utf-8"?>
<!-- Generator: Adobe Illustrator 27.5.0, SVG Export Plug-In . SVG Version: 6.00 Build 0)  -->
<svg version="1.1" id="Capa_1" xmlns="http://www.w3.org/2000/svg" xmlns:xlink="http://www.w3.org/1999/xlink" x="0px" y="0px"
	 viewBox="0 0 425.197 425.197" style="enable-background:new 0 0 425.197 425.197;" xml:space="preserve">
<g>
	<g>
		<rect style="fill:#FFFFFF;" width="425.197" height="425.197"/>
		<g>
			<path style="fill:#A1A8D5;" d="M220.883,133.598c0-50.447-40.896-91.344-91.342-91.344c-50.449,0-91.344,40.896-91.344,91.344
				c0,50.447,40.894,91.343,91.344,91.343C179.986,224.94,220.883,184.045,220.883,133.598z"/>
			<path style="fill:#C7DF8A;" d="M220.883,291.602c0-50.447-40.896-91.342-91.342-91.342c-50.449,0-91.344,40.895-91.344,91.342
				c0,50.449,40.894,91.342,91.344,91.342C179.986,382.943,220.883,342.051,220.883,291.602z"/>
			<path style="fill:#F05272;" d="M387,133.598c0-50.447-40.897-91.344-91.342-91.344c-50.447,0-91.344,40.896-91.344,91.344
				c0,50.447,40.896,91.343,91.344,91.343C346.103,224.94,387,184.045,387,133.598z"/>
			<path style="fill:#EAECB0;" d="M387,291.602c0-50.447-40.897-91.342-91.342-91.342c-50.447,0-91.344,40.895-91.344,91.342
				c0,50.449,40.896,91.342,91.344,91.342C346.103,382.943,387,342.051,387,291.602z"/>
		</g>
	</g>
	<g>
		<g>
			<path style="fill:#D3D2CF;" d="M176.541,135.095c-0.98-1.063-2.117-1.849-3.375-2.336c-1.52-0.594-3.398-0.663-4.959-0.19
				c-0.988,0.3-1.82,0.909-2.404,1.697c0.008-0.091,0.018-0.18,0.027-0.27c0.199-1.993,0.58-4.182,1.197-6.889l1.732-7.552
				c0.521-2.35,0.984-4.884,1.463-7.997c0.711-4.953,1.342-10.858,0.586-17.133c-0.354-2.646-1.016-6.138-3.037-9.679
				c-1.021-1.784-2.393-3.398-3.951-4.657c-1.588-1.303-3.523-2.314-5.594-2.929c-0.904-0.268-1.873-0.466-3.025-0.612l-1.221-0.107
				c-1.584-0.104-3.414-0.02-4.977,0.287c0.162-0.57,0.248-1.166,0.248-1.775c0-3.022-2.061-5.602-5.139-6.727l0.674-6.072
				c0.01-0.088,0.016-0.174,0.016-0.262c0-0.027,0-0.055-0.002-0.083c0.002-0.026,0.002-0.051,0.002-0.075
				c0-1.189,0-4.352-13.045-4.373c-13.045,0-13.045,3.177-13.045,4.373c0,0.027,0.002,0.054,0.002,0.08
				c-0.002,0.112,0,0.226,0.014,0.34l0.674,6.071c-3.08,1.124-5.137,3.704-5.137,6.728c0,2.696,1.672,5.1,4.305,6.383
				c0.029,1.453,0.065,2.964,0.102,4.517c0.234,9.777,0.498,20.856-1.164,28.594c-1.361,6.33-5.951,12.653-10.389,18.769
				c-3.711,5.108-7.545,10.391-9.656,15.854c-4.906,12.7-3.883,26.682,2.742,37.405c0.457,0.738,0.943,1.47,1.457,2.186
				c3.629,5.055,9.129,9.365,15.471,12.129l0.455,0.188c0.148,0.063,0.293,0.125,0.441,0.185l0.26,1.968
				c0.01,1.479,0.355,3.811,13.478,3.811c13.457,0,13.477-2.452,13.477-3.924l0.234-1.755c6.621-2.624,12.396-7.061,16.377-12.601
				c6.914-9.633,8.992-22.287,5.816-34.51c0.094,0.002,0.186,0.004,0.281,0.004c2.018,0,4.037-0.485,5.855-1.413
				c1.063-0.553,1.895-1.129,2.721-1.891l0.619-0.628c0.279-0.301,0.463-0.55,0.715-0.904c0.369-0.522,0.682-1.09,0.971-1.762
				c0.857-2.047,1.051-4.299,0.568-6.727C178.92,138.583,177.994,136.718,176.541,135.095z M149.617,90.155
				c0.076-0.117,0.154-0.228,0.311-0.432c0.016-0.017,0.104-0.117,0.168-0.189l0.121-0.12c0.055-0.038,0.135-0.094,0.145-0.102
				c0.131-0.077,0.244-0.129,0.369-0.165c0.357-0.106,0.938-0.23,1.666-0.23l0.166,0.001c0.193,0.002,0.393,0.009,0.578,0.023
				l0.592,0.055c0.273,0.046,0.58,0.099,0.871,0.189c1.002,0.313,1.639,0.853,2.277,1.938c0.691,1.147,1.23,2.915,1.518,4.968
				c0.502,3.693,0.381,8.059-0.385,13.738c-0.318,2.354-0.756,4.806-1.213,7.316c-0.188,1.018-0.398,2.055-0.609,3.104
				c-0.299,1.485-0.607,2.999-0.869,4.546c-0.291,1.755-0.594,3.746-0.779,5.855c-3.801-5.312-7.361-10.755-8.533-16.205
				c-0.545-2.528-0.912-5.589-1.121-9.35c0.15-1.12,0.275-1.618,0.441-2.296l0.334-1.408
				C146.596,97.424,147.559,93.319,149.617,90.155z M171.518,142.632c0.078,0,0.154,0.003,0.232,0.01
				c-0.207-0.021-0.404,0.019-0.604,0.053C171.271,142.673,171.383,142.632,171.518,142.632z M170.822,142.749
				c-0.246,0.077-0.48,0.185-0.689,0.337C170.326,142.944,170.563,142.833,170.822,142.749z M169.52,141.771
				c0.109,0.231,0.211,0.534,0.258,0.848c0.053,0.349,0.023,0.636-0.014,0.776c-0.086,0.061-0.246,0.156-0.424,0.232
				c-0.703,0.325-1.738,0.234-2.164-0.091l-0.004-0.003c-0.094-0.15-0.203-0.287-0.328-0.411c-0.154-0.211-0.291-0.463-0.428-0.705
				c-0.32-0.67-0.518-1.328-0.625-2.101c-0.027-0.172-0.051-0.351-0.068-0.537C166.564,140.982,167.953,141.756,169.52,141.771z"/>
			<path style="fill:#FFFFFF;" d="M173.023,133.523c-0.98-1.063-2.117-1.85-3.375-2.336c-1.518-0.594-3.396-0.663-4.957-0.19
				c-0.99,0.3-1.822,0.909-2.406,1.697c0.008-0.091,0.016-0.18,0.027-0.271c0.197-1.993,0.58-4.182,1.199-6.889l1.732-7.552
				c0.518-2.35,0.982-4.884,1.461-7.997c0.713-4.953,1.342-10.858,0.588-17.133c-0.354-2.646-1.018-6.138-3.039-9.68
				c-1.021-1.783-2.393-3.397-3.951-4.657c-1.588-1.302-3.523-2.313-5.594-2.928c-0.904-0.268-1.873-0.466-3.025-0.613l-1.221-0.107
				c-1.582-0.103-3.412-0.019-4.979,0.287c0.164-0.569,0.25-1.165,0.25-1.774c0-3.022-2.061-5.603-5.141-6.727l0.676-6.073
				c0.01-0.087,0.016-0.173,0.016-0.261c0-0.027-0.002-0.056-0.002-0.083c0-0.026,0.002-0.051,0.002-0.075
				c0-1.19,0-4.351-13.045-4.373c-13.045,0-13.045,3.177-13.045,4.373c0,0.027,0.002,0.054,0.004,0.08
				c-0.006,0.111,0,0.226,0.012,0.339l0.676,6.072c-3.08,1.124-5.139,3.704-5.139,6.728c0,2.696,1.672,5.1,4.307,6.383
				c0.027,1.453,0.063,2.964,0.102,4.517c0.232,9.776,0.498,20.857-1.168,28.594c-1.359,6.33-5.949,12.653-10.389,18.769
				c-3.707,5.108-7.543,10.391-9.652,15.854c-4.908,12.7-3.883,26.682,2.74,37.404c0.459,0.739,0.943,1.47,1.457,2.188
				c3.629,5.055,9.129,9.365,15.473,12.129l0.455,0.188c0.144,0.063,0.291,0.125,0.439,0.185l0.26,1.967
				c0.01,1.479,0.357,3.811,13.48,3.811c13.455,0,13.475-2.452,13.475-3.924l0.232-1.755c6.623-2.624,12.4-7.061,16.377-12.601
				c6.916-9.633,8.992-22.288,5.818-34.51c0.094,0.002,0.186,0.003,0.279,0.003c2.02,0,4.037-0.485,5.859-1.412
				c1.063-0.554,1.891-1.129,2.721-1.891l0.615-0.628c0.281-0.301,0.467-0.55,0.717-0.904c0.367-0.522,0.682-1.091,0.971-1.762
				c0.857-2.047,1.051-4.3,0.566-6.727C175.402,137.011,174.477,135.145,173.023,133.523z M146.1,88.583
				c0.076-0.118,0.154-0.229,0.313-0.432c0.014-0.017,0.104-0.118,0.166-0.189l0.121-0.12c0.057-0.038,0.137-0.094,0.145-0.102
				c0.129-0.077,0.246-0.129,0.369-0.166c0.357-0.105,0.938-0.23,1.668-0.23l0.164,0.002c0.195,0.001,0.393,0.009,0.578,0.022
				l0.592,0.056c0.273,0.046,0.578,0.099,0.871,0.188c1,0.313,1.639,0.853,2.279,1.938c0.689,1.148,1.229,2.915,1.516,4.968
				c0.502,3.693,0.381,8.059-0.385,13.738c-0.318,2.354-0.756,4.805-1.213,7.317c-0.188,1.017-0.398,2.055-0.609,3.104
				c-0.301,1.485-0.605,2.999-0.869,4.546c-0.291,1.755-0.594,3.746-0.779,5.854c-3.801-5.311-7.361-10.755-8.533-16.205
				c-0.543-2.529-0.912-5.589-1.123-9.351c0.152-1.119,0.277-1.618,0.445-2.295l0.334-1.408
				C143.078,95.852,144.041,91.747,146.1,88.583z M168.002,141.059c0.074,0,0.152,0.003,0.23,0.011
				c-0.207-0.021-0.404,0.019-0.602,0.053C167.754,141.101,167.867,141.059,168.002,141.059z M167.305,141.177
				c-0.246,0.077-0.48,0.184-0.688,0.337C166.811,141.372,167.045,141.26,167.305,141.177z M166.002,140.199
				c0.111,0.231,0.211,0.534,0.256,0.848c0.055,0.349,0.027,0.636-0.01,0.776c-0.09,0.061-0.248,0.155-0.424,0.232
				c-0.705,0.325-1.738,0.234-2.166-0.091l-0.002-0.003c-0.096-0.15-0.205-0.287-0.328-0.412c-0.154-0.21-0.295-0.462-0.428-0.704
				c-0.322-0.67-0.52-1.329-0.627-2.101c-0.027-0.172-0.049-0.351-0.066-0.538C163.047,139.409,164.434,140.184,166.002,140.199z"/>
		</g>
		<g>
			<path style="fill:#F5D5C5;" d="M160.336,148.345c-4.512-11.676-17.518-22.734-20.15-34.975
				c-2.271-10.579-1.068-27.029-1.068-37.885H128.24h-10.875c0,10.855,1.203,27.306-1.07,37.885
				c-2.631,12.241-15.637,23.3-20.148,34.975c-4.773,12.359-3.895,26.484,3.914,37.366c6.029,8.401,17.525,14.392,28.18,14.312
				c11.381-0.084,22-5.7,28.18-14.312C164.23,174.829,165.109,160.704,160.336,148.345z"/>
			<path style="fill:#F5D5C5;" d="M160.336,148.345c-4.512-11.676-17.518-22.734-20.15-34.975
				c-2.271-10.579-1.068-27.029-1.068-37.885H128.24h-10.875c0,10.855,1.203,27.306-1.07,37.885
				c-2.631,12.241-15.637,23.3-20.148,34.975c-4.773,12.359-3.895,26.484,3.914,37.366c6.029,8.401,17.525,14.392,28.18,14.312
				c11.381-0.084,22-5.7,28.18-14.312C164.23,174.829,165.109,160.704,160.336,148.345z"/>
			<path style="fill:#F5D5C5;" d="M119.24,110.142c-2.281,11.446-7.328,21.951-14.228,31.781
				c-4.813,6.855-8.605,13.811-8.221,22.457c0.178,4.04,0.762,9.1,4.1,11.892c3.641,3.047,8.289,4.3,12.975,4.453
				c7.824,0.258,15.867-1.58,20.01-8.927c3.514-6.224,3.908-13.645,1.977-20.458c-2.389-8.425-7.203-15.518-11.371-23.107
				C121.307,122.452,120.293,116.399,119.24,110.142z"/>
			<path style="fill:#F6E2D4;" d="M116.762,184.74c-6.832-0.44-14.932-2.667-17.375-9.915c-2.277-6.754-1.92-14.834,1.031-21.328
				c3.725-8.186,10.164-14.715,14.021-22.842c3.477-7.323,5.826-15.1,6.828-23.099c-0.004-0.022-0.008-0.046-0.012-0.07
				c-0.039-0.198,0-0.365,0.07-0.516c0.285-2.44,0.461-4.899,0.488-7.372c0.014-1.082,1.283,16.335,3.811,22.722
				c2.016,5.093,4.602,9.813,7.322,14.518c4.244,7.34,8.502,15.457,8.623,24.154C141.771,175.786,131.592,185.698,116.762,184.74z"
				/>
			<path style="fill:#E8C3B0;" d="M160.336,148.345c-4.512-11.676-17.518-22.734-20.15-34.975
				c-2.271-10.579-1.068-27.029-1.068-37.885H128.24h-2.42c-0.185,12.245-0.646,34.336,0.959,41.806
				c2.207,10.274,13.125,19.554,16.91,29.352c4.006,10.372,3.268,22.226-3.285,31.358c-5.188,7.227-14.1,11.938-23.65,12.01
				c-6.287,0.047-12.916-2.432-18.061-6.354c0.43,0.694,0.885,1.381,1.367,2.054c6.029,8.401,17.525,14.392,28.18,14.312
				c11.381-0.084,22-5.7,28.18-14.312C164.23,174.829,165.109,160.704,160.336,148.345z"/>
			<path style="fill:#DBB6A6;" d="M118.082,68.888c-0.014,0.011-0.029,0.019-0.043,0.027c-0.24,0.179-0.445,0.378-0.623,0.59
				c-0.018,0.021-0.045,0.04-0.064,0.064c-0.16,0.197-0.27,0.412-0.369,0.631c-0.02,0.045-0.055,0.085-0.072,0.131
				c-0.1,0.268-0.156,0.547-0.156,0.837c0,0.22,0.035,0.432,0.092,0.64c0.045,0.156,0.117,0.305,0.193,0.452
				c0.021,0.043,0.033,0.089,0.059,0.132c0.217,0.372,0.527,0.71,0.912,1.002c0.855,0.65,2.076,1.066,3.443,1.066h13.574
				c1.365,0,2.584-0.414,3.443-1.065v-0.001c0.385-0.292,0.695-0.63,0.914-1.003c0.023-0.042,0.035-0.088,0.057-0.129
				c0.074-0.149,0.148-0.297,0.193-0.454c0.059-0.208,0.092-0.42,0.092-0.64c0-0.29-0.053-0.569-0.154-0.837
				c-0.02-0.047-0.057-0.089-0.078-0.137c-0.098-0.217-0.209-0.43-0.365-0.625c-0.018-0.024-0.049-0.044-0.068-0.068
				c-0.18-0.211-0.379-0.41-0.619-0.586c-0.012-0.009-0.027-0.015-0.041-0.025c-0.24-0.172-0.506-0.324-0.795-0.458
				c-0.141-0.011-0.275-0.035-0.422-0.035h-17.887c-0.145,0-0.281,0.024-0.424,0.035C118.586,68.565,118.32,68.716,118.082,68.888z"
				/>
			<path style="fill:#DFB9A6;" d="M160.336,148.345c-4.512-11.676-17.518-22.734-20.15-34.975
				c-2.271-10.579-1.068-27.029-1.068-37.885H128.24h-10.875c0,1.317,0.02,2.722,0.045,4.187l5.017,0.35l10.873,0.759
				c-0.703,10.062-2.971,25.227-1.383,35.19c1.84,11.531,14.125,22.687,17.881,33.826c3.975,11.787,2.18,24.819-6.33,34.36
				c-6.734,7.552-17.715,12.015-29.096,11.301c-1.309-0.082-2.621-0.252-3.932-0.498c5.436,3.195,11.752,5.109,17.799,5.065
				c11.381-0.084,22-5.7,28.18-14.312C164.23,174.829,165.109,160.704,160.336,148.345z"/>
			<path style="fill:#DFB9A6;" d="M133.613,101.832c-0.463-1.437-0.461-3.131-0.297-4.561c0.158-1.468,0.494-2.796,0.816-4.001
				c0.67-2.303,1.219-4.982,2.471-7.84c0.313-0.711,0.684-1.433,1.117-2.146c0.215-0.358,0.447-0.712,0.705-1.06
				c0.123-0.175,0.254-0.348,0.396-0.519l0.207-0.255l0.105-0.126l0.053-0.064l0.154-0.172l0.332-0.354
				c0.092-0.101,0.387-0.372,0.576-0.54c0.443-0.391,0.783-0.646,1.211-0.926c0.813-0.541,1.688-0.971,2.559-1.276
				c1.75-0.624,3.484-0.812,5.092-0.808c0.402,0,0.805,0.009,1.193,0.035l0.658,0.051l0.482,0.049
				c0.906,0.117,1.764,0.282,2.594,0.528c1.682,0.497,3.357,1.335,4.768,2.491c1.418,1.145,2.564,2.545,3.4,4.004
				c1.676,2.939,2.363,5.952,2.746,8.819c0.693,5.755,0.18,11.188-0.582,16.484c-0.408,2.659-0.857,5.229-1.432,7.823l-1.727,7.535
				c-0.557,2.436-1.012,4.828-1.248,7.181c-0.063,0.589-0.1,1.174-0.135,1.757l-0.059,1.83c-0.021,1.192,0.016,2.312,0.17,3.325
				c0.143,1.024,0.426,1.921,0.83,2.766c0.225,0.411,0.449,0.823,0.75,1.207l0.107,0.146c-0.006-0.003,0.09,0.111-0.002,0.013
				l0.078,0.091l0.201,0.221c0.088,0.094,0.234,0.232,0.367,0.327c1.082,0.861,3.01,1.036,4.543,0.327
				c0.365-0.16,0.779-0.412,1.025-0.623c0.047-0.044,0.152-0.127,0.166-0.156c0.004,0.012,0.053-0.06,0.096-0.107
				c0.088-0.103,0.158-0.226,0.232-0.36c0.285-0.537,0.389-1.402,0.252-2.269c-0.125-0.864-0.5-1.747-0.955-2.305
				c-0.225-0.273-0.451-0.44-0.6-0.518c-0.152-0.065-0.207-0.081-0.381-0.064l-0.379,0.035c-1.287,0.122-2.43-0.826-2.553-2.115
				c-0.105-1.127,0.609-2.145,1.654-2.461c1.07-0.325,2.365-0.279,3.416,0.131c1.051,0.407,1.867,1.054,2.5,1.738
				c1.246,1.393,1.93,2.963,2.287,4.627c0.33,1.655,0.33,3.492-0.438,5.324c-0.195,0.453-0.432,0.898-0.727,1.317
				c-0.15,0.21-0.281,0.407-0.506,0.646l-0.314,0.338l-0.201,0.19c-0.713,0.654-1.4,1.1-2.189,1.511
				c-3.074,1.566-7.016,1.668-10.221-0.445c-0.402-0.265-0.754-0.544-1.131-0.892l-0.299-0.289l-0.178-0.185l-0.082-0.087
				l-0.152-0.176l-0.197-0.231c-0.533-0.604-0.996-1.288-1.426-1.989c-0.826-1.423-1.406-2.991-1.723-4.507
				c-0.336-1.521-0.461-2.987-0.531-4.374l-0.064-2.04c-0.006-0.706-0.006-1.412,0.023-2.109c0.092-2.802,0.473-5.515,0.91-8.142
				c0.445-2.617,1.02-5.163,1.471-7.61c0.447-2.464,0.9-4.979,1.23-7.428c0.66-4.903,0.996-9.866,0.383-14.372
				c-0.311-2.229-0.906-4.327-1.832-5.865c-0.922-1.561-2.02-2.48-3.594-2.974c-0.408-0.126-0.818-0.202-1.189-0.264l-0.48-0.054
				l-0.119-0.014c-0.035-0.004,0.166,0.016,0.049,0.006l-0.049-0.003l-0.188-0.016c-0.252-0.019-0.498-0.027-0.74-0.03
				c-0.971-0.021-1.83,0.119-2.527,0.325c-0.352,0.104-0.648,0.245-0.916,0.405c-0.119,0.063-0.297,0.199-0.34,0.231
				c-0.047,0.046-0.01-0.026-0.141,0.107l-0.342,0.341c-0.031,0.032,0.188-0.201,0.051-0.052l-0.049,0.059l-0.104,0.116
				c-0.07,0.073-0.137,0.156-0.199,0.245c-0.137,0.165-0.264,0.345-0.389,0.536c-2.436,3.745-3.447,8.515-4.463,12.812
				c-0.285,1.207-0.465,1.693-0.73,3.93c-0.137,1.156-0.131-3.262-0.596-2.114l-0.029,0.073c-0.516,1.277-1.973,1.896-3.248,1.378
				C134.344,103.092,133.834,102.507,133.613,101.832z"/>
			<g>
				<path style="fill:#A67372;" d="M136.457,82.544l2.469-22.225c0-1.201-4.779-2.173-10.678-2.173
					c-5.9,0-10.678,0.972-10.678,2.173l0,0h-0.016l2.473,22.225h0.02c-0.002,0.012-0.02,0.023-0.02,0.035
					c0,0.768,3.678,1.39,8.221,1.39c4.539,0,8.221-0.622,8.221-1.39c0-0.012-0.02-0.023-0.02-0.035H136.457z"/>
				<path style="fill:#98605D;" d="M136.457,82.544l2.469-22.225c0-0.673-1.504-1.274-3.865-1.674l-2.24,20.164h-0.008
					c0,0.012,0.02,0.022,0.02,0.035c0,0.768-3.682,1.39-8.221,1.39c-1.832,0-3.506-0.104-4.871-0.274l0.287,2.584h0.02
					c-0.002,0.012-0.02,0.023-0.02,0.035c0,0.768,3.678,1.39,8.221,1.39c4.539,0,8.221-0.622,8.221-1.39
					c0-0.012-0.02-0.023-0.02-0.035H136.457z"/>
				<path style="fill:#B79199;" d="M138.926,60.161c0-1.113-4.783-2.015-10.686-2.015c-5.9,0-10.686,0.901-10.686,2.015
					c0,1.113,4.785,2.015,10.686,2.015C134.143,62.176,138.926,61.274,138.926,60.161z"/>
			</g>
			<path style="opacity:0.34;fill:#F5D5C5;" d="M160.336,148.345c-4.512-11.676-17.518-22.734-20.15-34.975
				c-2.271-10.579-1.068-27.029-1.068-37.885H128.24h-10.875c0,10.855,1.203,27.306-1.07,37.885
				c-2.631,12.241-15.637,23.3-20.148,34.975c-4.773,12.359-3.895,26.484,3.914,37.366c6.029,8.401,17.525,14.392,28.18,14.312
				c11.381-0.084,22-5.7,28.18-14.312C164.23,174.829,165.109,160.704,160.336,148.345z"/>
			<path style="fill:#F5D5C5;" d="M138.002,68.458c0.006,0.067-0.002,0.132-0.014,0.199c1.043,0.603,1.738,1.488,1.738,2.511
				c0,1.819-2.104,3.292-4.699,3.292h-13.574c-2.596,0-4.699-1.473-4.699-3.292c0-1.021,0.691-1.907,1.73-2.507
				c-0.012-0.068-0.029-0.133-0.029-0.201c-3.014,0.336-5.35,2.387-5.35,4.92c0,2.769,2.771,5.012,6.191,5.012h17.887
				c3.42,0,6.191-2.243,6.191-5.012C143.375,70.841,141.027,68.785,138.002,68.458z"/>
			<path style="fill:#FEC674;" d="M148.473,139.717h-40.461c-2.619,3.641-5.08,7.274-6.514,10.982
				c-3.977,10.297-3.244,22.067,3.262,31.134c5.025,6.999,14.603,11.991,23.48,11.924c9.482-0.071,18.33-4.748,23.48-11.924
				c6.508-9.066,7.24-20.837,3.262-31.134C153.551,146.991,151.088,143.357,148.473,139.717z"/>
			<path style="fill:#FEC674;" d="M103.285,159.321c-0.629-7.608,0.387-14.259,5.264-19.605h-0.537
				c-2.619,3.641-5.08,7.274-6.514,10.982c-1.848,4.784-2.662,9.884-2.371,14.886c0.6,0.685,1.314,1.315,2.225,1.843
				c3.092,1.797,7.182,2.481,11.211,2.471C107.756,168.728,103.744,164.831,103.285,159.321z"/>
			<path style="fill:#FFD387;" d="M132.014,139.717H110.93c-4.549,4.28-6.375,9.574-6.16,16.068c0.1,3.039,1.014,5.984,2.768,8.469
				c2.379,3.369,6.426,4.524,10.328,4.802c4.492,0.319,8.053-1.384,11.188-4.602c3.127-3.21,4.871-7.528,5.344-11.945
				c0.225-2.118,0.213-4.308-0.082-6.416C134.201,145.273,133.072,139.717,132.014,139.717z"/>
			<path style="fill:#FDBA54;" d="M154.982,150.698c-1.432-3.707-3.895-7.341-6.51-10.982h-8.508c2,2.53,3.789,5.065,4.928,7.643
				c3.979,9.011,3.244,19.307-3.262,27.238c-5.148,6.277-13.998,10.37-23.481,10.433c-4.426,0.027-9.023-1.043-13.145-2.882
				c5.082,6.83,14.492,11.675,23.234,11.607c9.482-0.071,18.33-4.748,23.48-11.924C158.229,172.766,158.961,160.995,154.982,150.698
				z"/>
			<path style="fill:#E3B9AA;" d="M139.354,201.396l0.492-3.696h-23.207l0.492,3.696h0.027c-0.004,0.013-0.027,0.026-0.027,0.04
				c0,0.866,4.977,1.571,11.121,1.571c6.139,0,11.115-0.705,11.115-1.571c0-0.014-0.025-0.027-0.025-0.04H139.354z"/>
			<path style="fill:#A67372;" d="M155.854,167.107c0,6.776-5.492,12.269-12.27,12.269h-30.686c-6.777,0-12.27-5.492-12.27-12.269
				l0,0c0-6.778,5.492-12.27,12.27-12.27h30.686C150.361,154.838,155.854,160.329,155.854,167.107L155.854,167.107z"/>
			<g>
				<path style="fill:#FFFFFF;" d="M121.709,161.086c0.998,0,1.898,0.231,2.701,0.696c0.805,0.462,1.43,1.123,1.871,1.982
					c0.443,0.857,0.664,1.857,0.664,2.998c0,1.488-0.398,2.964-1.199,4.429c-0.797,1.464-1.775,2.569-2.932,3.313
					c-1.156,0.745-2.438,1.116-3.848,1.116c-1.623,0-2.934-0.507-3.935-1.52c-1-1.014-1.502-2.347-1.502-4.002
					c0-1.584,0.4-3.113,1.199-4.589c0.799-1.478,1.779-2.583,2.943-3.319C118.836,161.454,120.182,161.086,121.709,161.086z
					 M120.844,161.941c-0.918,0-1.764,0.271-2.535,0.813c-0.773,0.544-1.404,1.392-1.893,2.543
					c-0.492,1.153-0.738,2.491-0.738,4.013c0,1.743,0.385,3.088,1.152,4.036c0.768,0.945,1.725,1.418,2.875,1.418
					c0.854,0,1.662-0.28,2.428-0.843c0.762-0.562,1.393-1.448,1.887-2.656c0.494-1.209,0.742-2.597,0.742-4.166
					c0-1.623-0.379-2.89-1.135-3.798C122.873,162.395,121.943,161.941,120.844,161.941z"/>
				<path style="fill:#FFFFFF;" d="M128.074,168.068l-0.522-0.403c0.791-0.871,1.512-1.49,2.164-1.858
					c0.652-0.368,1.209-0.553,1.666-0.553c0.254,0,0.447,0.057,0.582,0.167c0.133,0.11,0.201,0.262,0.201,0.451
					c0,0.229-0.258,1.203-0.77,2.921c-0.838,2.811-1.256,4.504-1.256,5.081c0,0.112,0.027,0.205,0.084,0.279
					c0.055,0.076,0.113,0.114,0.178,0.114c0.254,0,0.902-0.491,1.947-1.473l0.463,0.451c-1.084,1.021-1.875,1.674-2.375,1.958
					c-0.498,0.285-0.906,0.429-1.223,0.429c-0.277,0-0.496-0.088-0.66-0.261c-0.162-0.176-0.242-0.416-0.242-0.726
					c0-0.988,0.594-3.407,1.781-7.255c0.055-0.182,0.084-0.345,0.084-0.487c0-0.158-0.072-0.236-0.215-0.236
					c-0.158,0-0.338,0.064-0.539,0.189C129.221,166.984,128.771,167.388,128.074,168.068z M132.742,160.208
					c0.244,0,0.445,0.081,0.604,0.244c0.158,0.161,0.238,0.37,0.238,0.623c0,0.348-0.121,0.654-0.361,0.92
					c-0.242,0.266-0.514,0.397-0.814,0.397c-0.236,0-0.436-0.083-0.592-0.249c-0.158-0.167-0.238-0.383-0.238-0.653
					c0-0.356,0.115-0.659,0.344-0.908C132.152,160.332,132.426,160.208,132.742,160.208z"/>
				<path style="fill:#FFFFFF;" d="M138.465,172.439l0.404,0.427c-0.617,0.697-1.35,1.331-2.191,1.906
					c-0.844,0.574-1.537,0.861-2.084,0.861c-0.246,0-0.447-0.094-0.605-0.279c-0.158-0.186-0.238-0.441-0.238-0.767
					c0-0.633,0.246-1.947,0.736-3.941l1.279-5.214c0.467-1.883,0.857-3.146,1.176-3.786c0.49-0.971,1.182-1.724,2.08-2.26
					c0.896-0.537,1.844-0.805,2.842-0.805c0.34,0,0.605,0.082,0.799,0.246c0.193,0.163,0.291,0.359,0.291,0.592
					c0,0.254-0.096,0.463-0.283,0.626c-0.189,0.164-0.467,0.245-0.828,0.245c-0.236,0-0.574-0.039-1.006-0.117
					c-0.379-0.063-0.73-0.096-1.055-0.096c-0.322,0-0.566,0.067-0.732,0.201c-0.23,0.189-0.436,0.587-0.621,1.193
					c-0.186,0.607-0.488,1.805-0.904,3.593l-1.186,4.976c-0.586,2.494-0.881,3.796-0.881,3.906c0,0.254,0.094,0.38,0.273,0.38
					c0.176,0,0.43-0.104,0.762-0.31C137.15,173.605,137.807,173.079,138.465,172.439z"/>
			</g>
			<path style="opacity:0.25;fill:#F7F1E3;" d="M124.531,133.103c-0.891-3.894-1.66-7.815-2.645-11.686
				c-1.398,7.85-4.9,15.016-8.945,21.922c-2.313,3.947-6.439,8.895-6.117,13.736c0.418,6.302,6.119,9.586,11.992,8.995
				c11.432-1.149,12.029-11.945,9.367-20.86C126.977,141.163,125.475,137.228,124.531,133.103z"/>
		</g>
	</g>
	<g>
		<g>
			<path style="fill:#D3D2CF;" d="M309.397,298.951c0.004-2.48-0.977-5.44-3.031-9.246c-0.061-0.1-0.119-0.197-0.174-0.277
				c-0.535-0.996-1.338-1.73-2.285-2.127c-0.35-2.105-1.297-4.547-2.869-7.459c-0.08-0.143-0.162-0.271-0.203-0.326
				c-9.74-16.391-13.008-30.705-13.539-33.262c-0.416-2.64-1.283-5.193-2.576-7.59c-3.785-7.008-10.678-11.535-17.559-11.535
				c-2.514,0-4.879,0.591-7.035,1.754c-0.547,0.297-1.068,0.626-1.539,0.964c-0.025,0.019-0.215,0.17-0.24,0.189
				c-0.422,0.314-0.828,0.643-1.262,1.053c-5.887,5.54-6.816,15.296-2.262,23.725c1.146,2.125,2.594,4.049,4.305,5.719
				c0.021,0.025,0.045,0.049,0.068,0.072c0.012,0.016,0.307,0.3,0.318,0.312c1.978,1.952,12.264,12.563,20.803,30.146
				c1.527,2.824,3.061,4.895,4.686,6.299c-0.182,0.795-0.217,1.951,0.498,3.256c0.053,0.119,0.123,0.264,0.16,0.34
				c2.022,3.744,3.939,6.166,6,7.525c0.631,17.147,2.656,39.006,8.574,49.957c4.154,7.691,11.518,12.105,20.199,12.105h0.002
				c4.646,0,9.539-1.316,14.145-3.803c6.467-3.49,11.228-8.688,13.406-14.631c2.229-6.086,1.69-12.705-1.516-18.643
				C340.688,322.762,323.463,309.004,309.397,298.951z M310.707,322.568c5.953,7.844,11.926,16.215,15.084,22.063
				c3.899,7.217,3.988,11.322,3.691,12.67c-1.287-0.49-4.672-2.816-8.568-10.033C317.684,341.291,313.971,331.76,310.707,322.568z
				 M311.684,352.254c1.469,2.723,3.045,5.145,4.688,7.219c-2.922-0.914-5.236-2.928-6.906-6.021
				c-1.898-3.514-3.494-9.234-4.73-16.791C307.066,342.619,309.451,348.121,311.684,352.254z M337.24,338.451
				c1.855,3.435,1.945,6.492,1.236,9.039c-0.834-2.5-1.99-5.133-3.455-7.842c-2.182-4.035-5.449-9-9.148-14.201
				C331.51,330.609,335.391,335.029,337.24,338.451z"/>
			<path style="fill:#FFFFFF;" d="M304.535,296.777c0.004-2.48-0.978-5.44-3.033-9.246c-0.057-0.1-0.117-0.197-0.172-0.277
				c-0.537-0.996-1.34-1.73-2.285-2.127c-0.352-2.105-1.299-4.547-2.871-7.459c-0.078-0.143-0.164-0.271-0.201-0.326
				c-9.74-16.39-13.008-30.705-13.539-33.262c-0.416-2.64-1.283-5.193-2.576-7.59c-3.787-7.006-10.678-11.534-17.559-11.534
				c-2.514,0-4.881,0.59-7.035,1.753c-0.547,0.297-1.068,0.626-1.541,0.964c-0.025,0.02-0.215,0.17-0.24,0.188
				c-0.422,0.314-0.826,0.643-1.262,1.054c-5.885,5.539-6.814,15.296-2.262,23.725c1.148,2.124,2.596,4.047,4.307,5.717
				c0.021,0.026,0.043,0.049,0.068,0.072c0.014,0.016,0.307,0.3,0.318,0.313c1.977,1.951,12.26,12.563,20.803,30.145
				c1.527,2.824,3.06,4.895,4.688,6.299c-0.186,0.795-0.217,1.951,0.496,3.256c0.051,0.117,0.121,0.264,0.16,0.34
				c2.022,3.744,3.94,6.168,5.998,7.525c0.635,17.146,2.658,39.008,8.574,49.957c4.154,7.693,11.522,12.105,20.201,12.105l0,0
				c4.65,0,9.539-1.316,14.147-3.801c6.465-3.492,11.228-8.689,13.406-14.633c2.228-6.084,1.69-12.705-1.518-18.643
				C335.828,320.588,318.6,306.83,304.535,296.777z M305.846,320.395c5.951,7.844,11.926,16.215,15.086,22.065
				c3.896,7.215,3.984,11.32,3.688,12.668c-1.285-0.49-4.672-2.815-8.568-10.033C312.822,339.117,309.107,329.586,305.846,320.395z
				 M306.818,350.08c1.475,2.725,3.049,5.146,4.689,7.219c-2.922-0.914-5.236-2.928-6.904-6.02
				c-1.898-3.514-3.494-9.236-4.728-16.793C302.205,340.445,304.588,345.947,306.818,350.08z M332.377,336.277
				c1.857,3.435,1.945,6.492,1.238,9.039c-0.836-2.5-1.99-5.133-3.455-7.842c-2.182-4.035-5.451-9-9.148-14.201
				C326.647,328.436,330.529,332.855,332.377,336.277z"/>
		</g>
		<g>
			<path style="fill:#A4B2BB;" d="M292.9,292.725c-0.02-0.012-0.037-0.018-0.057-0.027c-0.051-0.031-0.105-0.049-0.162-0.076
				c-0.131-0.064-0.262-0.117-0.404-0.152c-0.066-0.016-0.137-0.025-0.201-0.035c-0.145-0.02-0.281-0.021-0.424-0.01
				c-0.066,0.008-0.127,0.008-0.188,0.018c-0.203,0.037-0.404,0.096-0.592,0.193c0,0,0,0,0,0.004l0,0c-0.002-0.002-0.004,0-0.004,0
				c-0.002,0-0.004,0.004-0.008,0.01c-0.189,0.1-0.35,0.234-0.488,0.387c-0.035,0.033-0.059,0.07-0.09,0.107
				c-0.1,0.125-0.186,0.256-0.252,0.4c-0.025,0.057-0.049,0.107-0.068,0.162c-0.053,0.143-0.082,0.289-0.102,0.443
				c-0.006,0.057-0.023,0.109-0.025,0.168c0,0.021-0.006,0.037-0.006,0.057c-0.01,1.807-0.174,44.447,8.41,60.342
				c5.701,10.551,18.008,13.424,29.928,6.984c11.924-6.438,16.272-18.303,10.572-28.857
				C330.363,317.334,294.428,293.723,292.9,292.725z M326.283,358.205c-2.574,1.391-8.041-2.188-13.1-11.561
				c-5.621-10.402-12.564-30.965-16.455-43.145c8.088,10.01,21.578,27.24,27.072,37.408
				C328.861,350.281,328.857,356.816,326.283,358.205z M301.734,352.828c-5.147-9.529-6.959-30.342-7.596-44.379
				c4.041,12.418,10.271,30.309,15.551,40.082c3.119,5.775,6.623,9.92,10.025,12.131
				C312.891,362.131,305.777,360.315,301.734,352.828z M331.936,354.061c0.02-4.055-1.525-9.26-4.645-15.037
				c-5.152-9.537-16.736-24.623-24.947-34.889c11.434,8.309,27.885,21.299,32.902,30.592
				C339.289,342.215,336.906,349.158,331.936,354.061z"/>
			<g>
				<g>
					<path style="fill:#A67372;" d="M290.844,292.588c-4.141,2.236-7.73,3.617-12.52-5.252c-8.779-18.08-19.6-29.156-21.381-30.913
						c-0.057-0.05-0.109-0.108-0.164-0.16c-0.064-0.061-0.115-0.112-0.115-0.112l0.002-0.005c-1.469-1.412-2.781-3.103-3.838-5.056
						c-4.469-8.275-2.688-17.907,3.986-21.512c6.672-3.604,15.705,0.191,20.174,8.461c1.152,2.137,1.881,4.363,2.227,6.551
						c0.6,2.926,3.984,17.64,13.953,34.418c0.045,0.08,0.105,0.148,0.15,0.232C298.574,288.973,294.982,290.352,290.844,292.588z"/>
				</g>
				<g>
					<path style="fill:#B58787;" d="M258.703,255.297c-2.078-2.432-3.813-5.064-4.129-7.832c-0.498-4.263,4.377-4.518,7.305-3.382
						c7.381,2.869,10.207,17.173,12.728,23.917c1.797,4.797,3.768,9.342,6.498,13.734c0.09,0.143,4.988,8.123,3.711,10.26
						c-1.389-1.027-2.846-2.826-4.434-5.768c-4.152-8.549-9.24-16.617-15.195-23.898
						C263.475,260.234,260.897,257.874,258.703,255.297z"/>
				</g>
				<path style="fill:#98605D;" d="M290.844,292.588c-2.248,1.213-4.334,2.162-6.537,1.369c0.684-0.234,1.367-0.576,2.066-0.955
					c3.396-1.834,6.361-2.916,1.447-12.012c-0.037-0.072-0.092-0.139-0.133-0.213c-9.234-15.725-12.801-29.254-13.451-31.938
					c-0.395-2.004-1.121-4.061-2.195-6.056c-4.178-7.733-11.996-11.613-17.465-8.659c-1.855,1.002-3.156,2.696-3.963,4.753
					c0.668-4.018,2.783-7.452,6.201-9.3c6.672-3.604,15.705,0.191,20.174,8.461c1.152,2.137,1.881,4.363,2.227,6.551
					c0.6,2.926,3.984,17.64,13.953,34.418c0.045,0.08,0.105,0.148,0.15,0.232C298.574,288.973,294.982,290.352,290.844,292.588z"/>
			</g>
			<g>
				<path style="fill:#A67372;" d="M298.514,288.904c-0.063-0.1-0.543-1.355-1.965-0.619c-0.969,0.504-3.832,2.063-3.832,2.063
					c0,0.004,0,0.004,0.002,0.006c-1.908,1.025-7.807,4.201-8.604,4.649c-1.395,0.783-0.609,1.875-0.557,1.98
					c0.039,0.08,0.065,0.166,0.111,0.25c5.256,9.733,8.377,7.484,12.518,5.25c4.141-2.236,7.73-3.615,2.475-13.348
					C298.615,289.053,298.559,288.984,298.514,288.904z"/>
				<path style="fill:#98605D;" d="M296.549,288.285c-0.969,0.504-3.832,2.063-3.832,2.063c4.596,8.711,2.344,10.744-0.998,12.549
					c-0.701,0.379-1.383,0.721-2.068,0.959c2.205,0.789,4.289-0.158,6.537-1.373c4.141-2.236,7.73-3.615,2.475-13.348
					c-0.047-0.082-0.104-0.15-0.148-0.23C298.451,288.805,297.971,287.549,296.549,288.285z"/>
				<g>
					<path style="fill:#B58787;" d="M284.709,294.666c0.094,0.19,0.191,0.373,0.281,0.559c1.588,2.941,3.043,4.738,4.434,5.766
						c0.815-1.361-0.881-5.09-2.242-7.658L284.709,294.666z"/>
				</g>
			</g>
		</g>
	</g>
	<g>
		<g>
			<path style="fill:#D3D2CF;" d="M121.283,238.778c0.004,0.078,0.014,0.156,0.025,0.234c0.002,0.018,0.105,0.701,0.201,1.552
				c0.287,2.461,0.021,5.859-2.846,8.087c-0.203,0.156-0.447,0.376-0.748,0.648c-1.723,1.565-5.748,5.233-16.91,5.871
				c-0.137,0.007-0.271,0.025-0.4,0.053c-6.246,0.619-11.15,6.127-11.15,12.808v86.748c0,4.455,3.496,8.082,7.793,8.082h73.15
				c4.297,0,7.793-3.627,7.793-8.082v-86.748c0-6.657-4.869-12.15-11.084-12.801c-0.172-0.039-0.35-0.061-0.531-0.064
				c-11.111-0.646-15.127-4.302-16.844-5.866c-0.299-0.272-0.547-0.492-0.748-0.648c-2.869-2.228-3.131-5.626-2.85-8.087
				c0.1-0.851,0.201-1.534,0.205-1.552c0.014-0.085,0.021-0.17,0.027-0.256c0.041-0.422,0.068-0.847,0.068-1.279
				c0-0.465-0.029-0.922-0.08-1.373c-0.012-0.121-0.029-0.242-0.07-0.494c-0.023-0.161-0.049-0.322-0.061-0.393
				c-0.014-0.089-0.027-0.177-0.045-0.266c-0.002-0.016-0.039-0.163-0.043-0.179c-0.029-0.136-0.063-0.269-0.1-0.399l-2.523,0.679
				l2.469-0.894c-0.035-0.145-0.072-0.289-0.133-0.481l-0.072-0.199c-0.053-0.155-0.109-0.307-0.203-0.558
				c-0.039-0.116-0.082-0.232-0.129-0.343c-0.043-0.105-0.094-0.211-0.148-0.316c-0.076-0.165-0.156-0.33-0.242-0.505
				c-0.025-0.053-0.113-0.237-0.141-0.288c-0.061-0.108-0.125-0.214-0.232-0.385c-0.088-0.149-0.178-0.298-0.256-0.42
				c-0.029-0.055-0.117-0.194-0.152-0.247c-0.082-0.119-0.166-0.231-0.254-0.344l-0.117-0.158c-0.086-0.119-0.174-0.236-0.191-0.25
				c-0.035-0.051-0.113-0.156-0.154-0.204c-0.127-0.157-0.268-0.307-0.516-0.573c-0.078-0.091-0.158-0.18-0.17-0.186
				c-0.033-0.038-0.088-0.098-0.123-0.133c-0.166-0.167-0.34-0.324-0.637-0.584c-0.08-0.076-0.164-0.153-0.252-0.227
				c-0.025-0.023-0.057-0.046-0.086-0.07c-0.195-0.156-0.402-0.306-0.619-0.463c-0.049-0.037-0.227-0.17-0.277-0.203
				c-0.217-0.146-0.441-0.277-0.764-0.467c-0.045-0.029-0.215-0.129-0.262-0.154c-0.18-0.1-0.367-0.189-0.555-0.276l-0.225-0.105
				c-0.111-0.058-0.227-0.112-0.34-0.16c-0.219-0.092-0.445-0.172-0.799-0.296c-0.115-0.046-0.232-0.088-0.369-0.131
				c-0.227-0.07-0.461-0.128-0.824-0.217c-0.123-0.033-0.248-0.066-0.377-0.092c-0.191-0.039-0.389-0.067-0.586-0.095l-0.217-0.032
				c-0.154-0.027-0.309-0.051-0.445-0.064c-0.16-0.017-0.324-0.023-0.488-0.03l-0.271-0.014c-0.188-0.014-0.367-0.023-0.531-0.022
				c-6.953,0-12.609,5.657-12.609,12.61C121.215,237.917,121.238,238.351,121.283,238.778z M131.797,237.478
				c0-1.118,0.908-2.028,2.027-2.028c1.117,0,2.027,0.91,2.027,2.028c0,1.118-0.91,2.028-2.027,2.028
				c-0.949,0-1.783-0.67-1.984-1.601C131.811,237.77,131.797,237.628,131.797,237.478z"/>
			<path style="fill:#FFFFFF;" d="M117.385,237.035c0.004,0.078,0.014,0.157,0.025,0.235c0.002,0.017,0.105,0.701,0.203,1.552
				c0.285,2.461,0.022,5.859-2.85,8.087c-0.199,0.156-0.447,0.376-0.746,0.648c-1.721,1.565-5.746,5.232-16.91,5.871
				c-0.137,0.007-0.27,0.025-0.398,0.053c-6.248,0.619-11.15,6.126-11.15,12.808v86.746c0,4.457,3.496,8.084,7.791,8.084h73.152
				c4.295,0,7.791-3.627,7.791-8.084v-86.746c0-6.657-4.867-12.149-11.082-12.801c-0.174-0.039-0.352-0.061-0.535-0.065
				c-11.109-0.646-15.125-4.302-16.84-5.865c-0.301-0.272-0.549-0.492-0.75-0.648c-2.869-2.227-3.133-5.626-2.848-8.087
				c0.098-0.851,0.201-1.535,0.203-1.552c0.014-0.086,0.021-0.171,0.027-0.256c0.041-0.422,0.066-0.848,0.066-1.279
				c0-0.465-0.027-0.923-0.076-1.373c-0.014-0.121-0.031-0.242-0.072-0.494c-0.023-0.162-0.047-0.323-0.063-0.393
				c-0.012-0.089-0.025-0.178-0.041-0.266c-0.004-0.016-0.041-0.164-0.045-0.179c-0.029-0.137-0.063-0.27-0.1-0.4l-2.525,0.679
				l2.471-0.893c-0.035-0.145-0.07-0.29-0.131-0.482l-0.072-0.199c-0.055-0.154-0.111-0.306-0.205-0.558
				c-0.041-0.116-0.08-0.231-0.129-0.342c-0.043-0.105-0.094-0.212-0.15-0.317c-0.074-0.164-0.152-0.33-0.24-0.505
				c-0.023-0.053-0.115-0.236-0.143-0.288c-0.059-0.108-0.123-0.214-0.229-0.384c-0.088-0.15-0.178-0.298-0.256-0.421
				c-0.031-0.055-0.119-0.193-0.152-0.246c-0.082-0.119-0.168-0.232-0.256-0.344l-0.115-0.158c-0.09-0.119-0.174-0.237-0.191-0.251
				c-0.037-0.051-0.115-0.156-0.156-0.204c-0.127-0.156-0.266-0.307-0.514-0.573c-0.08-0.091-0.16-0.179-0.17-0.186
				c-0.035-0.037-0.09-0.097-0.125-0.133c-0.164-0.167-0.34-0.323-0.635-0.584c-0.082-0.076-0.166-0.153-0.252-0.226
				c-0.029-0.024-0.057-0.047-0.088-0.07c-0.193-0.156-0.402-0.307-0.619-0.463c-0.049-0.037-0.227-0.17-0.277-0.204
				c-0.217-0.145-0.441-0.277-0.766-0.466c-0.043-0.029-0.213-0.13-0.258-0.155c-0.18-0.099-0.367-0.189-0.555-0.275l-0.225-0.105
				c-0.113-0.058-0.229-0.112-0.34-0.16c-0.219-0.092-0.447-0.172-0.801-0.296c-0.115-0.047-0.23-0.089-0.367-0.131
				c-0.229-0.07-0.463-0.128-0.826-0.217c-0.123-0.034-0.246-0.066-0.375-0.092c-0.193-0.039-0.393-0.068-0.59-0.096l-0.213-0.032
				c-0.154-0.026-0.311-0.051-0.447-0.063c-0.16-0.017-0.322-0.024-0.486-0.03l-0.273-0.014c-0.186-0.014-0.367-0.024-0.531-0.023
				c-6.953,0-12.609,5.656-12.609,12.61C117.316,236.174,117.342,236.608,117.385,237.035z M127.898,235.735
				c0-1.118,0.91-2.029,2.027-2.029s2.027,0.911,2.027,2.029c0,1.117-0.91,2.028-2.027,2.028c-0.949,0-1.783-0.671-1.982-1.602
				C127.912,236.028,127.898,235.885,127.898,235.735z"/>
		</g>
		<g>
			<path style="fill:#CD792E;" d="M161.969,256.037h0.627c-13.629-0.777-17.699-5.966-19.111-7.064
				c-4.129-3.205-4.125-7.997-3.844-10.451c0.105-0.914,0.217-1.644,0.217-1.644l-0.006,0.001c0.045-0.376,0.07-0.757,0.07-1.145
				c0-5.52-4.475-9.996-9.996-9.996s-9.996,4.476-9.996,9.996c0,0.388,0.025,0.769,0.068,1.145l-0.004-0.001
				c0,0,0.111,0.729,0.217,1.644c0.281,2.454,0.285,7.246-3.844,10.451c-1.412,1.098-5.482,6.286-19.111,7.064h0.627
				c-5.363,0-9.711,4.592-9.711,10.252v2.473v16.897v67.377c0,3.022,2.318,5.471,5.178,5.471h73.152
				c2.859,0,5.178-2.449,5.178-5.471v-67.377v-16.897v-2.473C171.68,260.629,167.332,256.037,161.969,256.037z M129.926,240.378
				c-2.228,0-4.088-1.568-4.539-3.659c-0.068-0.316-0.102-0.646-0.102-0.983c0-2.563,2.076-4.643,4.641-4.643
				c2.564,0,4.641,2.079,4.641,4.643C134.566,238.298,132.49,240.378,129.926,240.378z"/>
			<path style="fill:#D7802C;" d="M132.551,267.69c-1.674-1.854-2.59-5.151-5.107-5.948c-2.826-0.892-6.162,0.999-8.746,1.929
				c-3.367,1.21-6.926,1.779-10.291,3.031c-10.359,3.855-10.809,19.029-10.957,28.391c-0.166,10.328-0.154,21.127,1.475,31.348
				c1.506,9.443,11.477,10.742,19.479,11.887c9.363,1.336,22.838,0.816,25.188-10.486c1.729-8.336,1.168-16.293,2.256-24.688
				c1.096-8.449,3.676-22.469-4.34-29.315c-2.678-2.289-6.215-3.43-8.732-5.914C132.697,267.848,132.623,267.77,132.551,267.69z"/>
			<path style="fill:#E99C41;" d="M92.154,272.045c2.961-8.251,9.752-10.453,17.516-12.22c4.23-0.959,9.332-2.049,12.266-5.548
				c4.139-4.939,0.316-21.619,0.316-16.292c0,0.388,0.025,0.769,0.068,1.145l-0.004-0.002c0,0,0.113,0.73,0.219,1.645
				c0.283,2.454,0.285,7.246-3.844,10.45c-1.412,1.098-5.482,6.286-19.109,7.064h0.623c-5.361,0-9.709,4.591-9.709,10.252v9.568
				C90.922,276.065,91.439,274.039,92.154,272.045z"/>
			<path style="fill:#CC6C2D;" d="M161.969,256.037h0.627c-13.629-0.777-17.699-5.966-19.111-7.064
				c-4.129-3.205-4.125-7.997-3.844-10.451c0.105-0.914,0.217-1.644,0.217-1.644l-0.006,0.001c0.045-0.376,0.07-0.757,0.07-1.145
				c0-3.109-1.418-5.885-3.643-7.72c0.01,0.046,0.029,0.08,0.033,0.13c0.363,5.699,0.207,7.845,0.338,13.56
				c0.129,5.718,1.018,16.017,4.51,20.986c2.348,3.346,5.697,5.754,8.117,9.02c2.262,3.051,3.068,6.291,3.342,10.059
				c0.646,9.021-0.123,18.273-0.477,27.309c-0.246,6.303-0.814,12.746-2.488,18.854c-1.422,5.199-3.611,11.449-8.389,14.543
				c-6.24,4.035-15.467,3.771-22.547,3.166c-8.557-0.732-18.229-1.621-26.391-4.361c-1.98-0.664-3.264-1.83-4.156-3.271v15.027
				c0,3.022,2.318,5.471,5.178,5.471h73.152c2.859,0,5.178-2.449,5.178-5.471v-86.746
				C171.68,260.629,167.332,256.037,161.969,256.037z"/>
			<path style="fill:#BA6530;" d="M161.969,256.037h0.627c-13.629-0.777-17.699-5.966-19.111-7.064
				c-4.129-3.205-4.125-7.997-3.844-10.451c0.105-0.914,0.217-1.644,0.211-1.643c0.045-0.376,0.07-0.757,0.07-1.145
				c0-5.518-4.469-9.99-9.984-9.996c4.16,1.559,6.912,5.414,6.756,10.775c-0.164,5.66-0.293,11.192,2.963,16.149
				c2.896,4.411,7.037,7.78,11.789,10.055c3.025,1.448,6.449,2.947,7.797,6.297c2.109,5.233,2.268,10.996,2.268,16.565
				c0,9.381-0.105,18.77,0.027,28.15c0.092,6.438-0.344,13.006-1.307,19.377c-0.783,5.203-2.449,10.621-6.764,13.988
				c-6.211,4.848-13.887,4.707-21.404,4.957c-11.346,0.373-23.047,1.596-34.383,0.795c-4.117-0.291-7.48-1.564-9.508-4.258v4.445
				c0,3.022,2.318,5.471,5.178,5.471h73.152c2.859,0,5.178-2.449,5.178-5.471v-86.746
				C171.68,260.629,167.332,256.037,161.969,256.037z"/>
		</g>
	</g>
	<g>
		<g>
			<path style="fill:#D3D2CF;" d="M308.637,129.705c0.387-0.715,0.871-1.601,1.084-2.727c0.361-1.875-0.139-3.678-0.469-4.872
				c-2.096-7.546-5.09-14.829-7.983-21.873l-0.125-0.3c-0.5-1.221-1.006-2.432-1.516-3.646l-0.445-1.067
				c-6.125-14.602-14.477-25.664-24.82-32.879l-0.588-0.422c-0.287-0.209-0.578-0.423-0.877-0.628
				c-3.729-2.569-7.123-3.126-10.102-1.652c-0.41,0.202-0.785,0.455-1.08,0.718c-2.264,1.865-2.611,5.16-0.91,8.596l26.799,54.163
				c0.514,1.042,1.01,2.091,1.504,3.145l1.027,2.155c0.154,0.319,0.303,0.658,0.459,1.004c0.67,1.503,1.432,3.208,2.766,4.555
				c1.111,1.134,2.479,1.337,3.293,1.459c0.131,0.02,0.26,0.033,0.373,0.061c0.486,0.142,0.975,0.328,1.443,0.548
				c0.494,0.68,1.184,1.894,1.637,2.819c8.065,16.843,15.457,35.477,19.428,45.486c1.73,4.36,2.58,6.497,2.994,7.334
				c1.566,3.168,4.875,6.713,7.088,8.65c0.072,0.072,0.15,0.145,0.232,0.211l0.563,0.48l2.504,1.804
				c0.164,0.1,0.326,0.187,0.449,0.251c0.15,0.079,0.299,0.158,0.432,0.219c0.199,0.095,0.383,0.168,0.623,0.256
				c0.076,0.027,0.324,0.113,0.404,0.137c0.285,0.082,0.533,0.122,0.693,0.141c0.166,0.028,0.438,0.055,0.605,0.06
				c0.635,0.004,1.228-0.128,1.758-0.392c5.092-2.52,1.395-16.394-0.08-19.373c-0.414-0.837-1.594-2.808-4.012-6.829
				c-5.549-9.227-15.877-26.407-24.377-43.05l-0.096-0.188c-0.686-1.321-1.391-2.686-1.1-3.512
				C308.32,130.254,308.484,129.98,308.637,129.705z"/>
			<path style="fill:#FFFFFF;" d="M303.625,129.9c0.389-0.713,0.873-1.6,1.086-2.726c0.359-1.875-0.139-3.678-0.467-4.873
				c-2.1-7.545-5.09-14.83-7.984-21.872l-0.125-0.302c-0.5-1.22-1.006-2.433-1.518-3.644l-0.445-1.066
				c-6.125-14.602-14.475-25.667-24.818-32.879l-0.588-0.424c-0.285-0.209-0.578-0.422-0.877-0.627
				c-3.73-2.568-7.125-3.127-10.1-1.653c-0.41,0.202-0.787,0.456-1.084,0.718c-2.262,1.868-2.609,5.16-0.908,8.597l26.799,54.162
				c0.516,1.042,1.01,2.092,1.506,3.145l1.027,2.155c0.154,0.319,0.303,0.658,0.457,1.006c0.672,1.501,1.43,3.206,2.764,4.553
				c1.115,1.135,2.48,1.337,3.297,1.46c0.129,0.019,0.256,0.032,0.373,0.061c0.483,0.142,0.973,0.328,1.443,0.548
				c0.49,0.68,1.182,1.895,1.635,2.82c8.066,16.841,15.457,35.474,19.428,45.485c1.73,4.36,2.578,6.496,2.992,7.335
				c1.568,3.166,4.879,6.712,7.09,8.648c0.07,0.072,0.152,0.145,0.233,0.211l0.564,0.48l2.5,1.807
				c0.168,0.099,0.328,0.186,0.453,0.25c0.148,0.079,0.297,0.157,0.428,0.219c0.203,0.094,0.385,0.166,0.623,0.255
				c0.08,0.028,0.328,0.113,0.404,0.137c0.287,0.083,0.533,0.121,0.695,0.141c0.166,0.03,0.436,0.057,0.605,0.061
				c0.635,0.004,1.227-0.129,1.76-0.392c5.088-2.518,1.395-16.395-0.08-19.374c-0.416-0.838-1.596-2.807-4.012-6.828
				c-5.551-9.23-15.879-26.407-24.377-43.051l-0.098-0.189c-0.686-1.319-1.391-2.686-1.1-3.51
				C303.311,130.448,303.475,130.177,303.625,129.9z"/>
		</g>
		<g>
			<path style="fill:#D0E0E7;" d="M267.602,65.059c-0.463-0.319-0.943-0.691-1.455-1.044c-2.594-1.785-4.938-2.456-6.998-1.429
				c-1.904,0.949-1.543,3.296-0.602,5.202c0.281,0.566,0.563,1.133,0.844,1.7c0.75,1.522,1.504,3.043,2.258,4.565
				c1.109,2.244,2.221,4.489,3.33,6.732c1.352,2.729,2.701,5.457,4.053,8.188c1.471,2.973,2.939,5.946,4.412,8.919
				c1.475,2.98,2.949,5.961,4.424,8.941c1.361,2.753,2.723,5.503,4.084,8.255c1.131,2.285,2.262,4.573,3.396,6.862
				c0.871,1.762,1.689,3.554,2.545,5.326c0.74,1.537,1.426,3.509,2.643,4.739c0.582,0.591,1.576,0.504,2.342,0.729
				c0.877,0.254,1.742,0.61,2.545,1.044c1.08,1.158,2.445,3.945,2.445,3.945c11.172,23.324,21.025,49.996,22.404,52.782
				c2.139,4.325,9.467,11.304,11.24,10.427c1.772-0.877,0.67-10.936-1.471-15.262c-1.377-2.785-16.603-26.801-28.365-49.833
				c-0.979-1.896-2.121-3.982-1.365-6.128c0.379-1.07,1.172-1.997,1.387-3.124c0.217-1.129-0.113-2.388-0.412-3.473
				c-2.076-7.476-5.045-14.667-7.99-21.832c-0.641-1.568-1.301-3.126-1.953-4.688C286.195,84.336,278.65,72.766,267.602,65.059z"/>
			<path style="fill:#E7EDEE;" d="M260.768,63.957c-1.551,1.04-1.207,3.211-0.316,5.008l23.945,48.398
				C282.16,111.365,262.92,71.129,260.768,63.957z"/>
			<g>
				<path style="fill:#C1D7E1;" d="M267.602,65.059c-0.463-0.319-0.943-0.691-1.455-1.044c-2.594-1.785-4.938-2.456-6.998-1.429
					c-0.35,0.174-0.602,0.41-0.811,0.668c1.857-0.534,3.914,0.139,6.152,1.647c0.508,0.338,0.984,0.7,1.436,1.01
					c10.928,7.454,18.328,18.731,23.336,30.719c0.635,1.523,1.273,3.05,1.898,4.579c2.863,7.001,5.748,14.027,7.746,21.339
					c0.289,1.063,0.605,2.294,0.379,3.403c-0.225,1.106-1.023,2.023-1.41,3.075c-0.772,2.114,0.344,4.151,1.299,6.001
					c11.49,22.482,26.416,45.895,27.762,48.613c2.09,4.223,3.092,14.081,1.322,14.958c-0.328,0.161-0.844,0.059-1.477-0.238
					c2.047,1.802,3.939,2.974,4.73,2.583c1.772-0.877,0.67-10.936-1.471-15.262c-1.377-2.785-16.603-26.801-28.365-49.833
					c-0.979-1.896-2.121-3.982-1.365-6.128c0.379-1.07,1.172-1.997,1.387-3.124c0.217-1.129-0.113-2.388-0.412-3.473
					c-2.076-7.476-5.045-14.667-7.99-21.832c-0.641-1.568-1.301-3.126-1.953-4.688C286.195,84.336,278.65,72.766,267.602,65.059z"/>
			</g>
		</g>
	</g>
</g>
</svg>
